<svg xmlns="http://www.w3.org/2000/svg" fill="#FFF" viewBox="0 0 24 24"><path d="m22.6 12.2-2-1.5-2-1.5a1 1 0 0 0-.4-.2l-5-1a.9.9 0 0 0-.4 0l-1.8.38V5a4 4 0 0 0-4-4H5a4 4 0 0 0-4 4v17a1 1 0 0 0 1 1h18a1 1 0 0 0 1-1v-8.5l.4.3a1 1 0 0 0 .6.2 1 1 0 0 0 .8-.4 1 1 0 0 0-.2-1.4ZM5 3h2a2 2 0 0 1 2 2H3a2 2 0 0 1 2-2ZM3 7h6v1.78L7.8 9a1 1 0 0 0-.4.18l-2 1.5-2 1.5a1 1 0 0 0 1.2 1.6l.4-.3V21H3Zm8 14v-4h4v4Zm8-9v9h-2v-5a1 1 0 0 0-1-1h-6a1 1 0 0 0-1 1v5H7v-9l1.42-1.06L13 10l4.58.92Zm-7 0h2a1 1 0 0 1 0 2h-2a1 1 0 0 1 0-2Z"/></svg>